<?xml version="1.0" encoding="UTF-8"?>
<svg version="1.1" viewBox="0 0 1920 1920" width="120" height="120" xmlns="http://www.w3.org/2000/svg">
<path transform="translate(0)" d="m0 0h1920v1920h-1920z" fill="#EDEDED"/>
<path transform="translate(939,1226)" d="m0 0h61l31 1 44 3 44 5 27 4 40 8 32 8 24 7 40 13 39 14 27 11 30 14 26 13 22 12 29 17 39 26 18 13 14 11 16 13 15 13 13 12 34 34 9 11 12 15 14 19 10 15 8 13 11 19 12 22 12 26 8 19 4 14 2 15 3 49 3 76 5 106v23h-1499l1-45 3-72 5-100 3-53 3-22 5-15 8-16 8-14 14-23 14-21 9-12 10-13 14-17 8-10 9-10 2-3h2l2-4 15-16 8-8 8-7 13-12 11-9 14-11 18-14 18-13 21-14 16-10 20-12 18-10 22-12 33-15 30-13 29-11 34-12 36-12 27-8 36-8 41-7 31-4 51-4z" fill="#AFB5B7"/>
<path transform="translate(948,388)" d="m0 0h26l24 3 33 6 23 6 30 10 24 10 27 13 27 16 19 13 17 13 14 12 9 9 7 6 7 8 12 13 13 17 14 20 15 24 14 25 11 22 8 20 6 19 6 27 6 35 3 30 1 25v23l-2 30-3 23-5 26-8 30-8 23-11 26-19 38-13 21-13 18-11 14-12 14-16 17-12 12-8 7-13 11-17 13-24 16-15 9-26 14-21 9-24 8-24 6-27 4-10 1-36 1-39-3-31-5-26-6-21-7-29-13-20-11-20-12-19-13-14-11-11-9-16-15-8-8-7-8-7-7-9-11-13-16-24-36-9-15-10-18-9-21-9-27-9-37-7-38-4-31-2-27v-21l3-30 5-29 7-31 7-25 8-22 8-18 16-32 13-22 10-14 9-12 13-15 1-2h2l2-4 12-13 16-16 8-7 13-11 16-12 17-12 21-13 27-14 27-11 35-12 27-7 24-5z" fill="#AFB5B7"/>
</svg>
