<?xml version="1.0" encoding="UTF-8"?>
<svg version="1.1" viewBox="0 0 2048 299" width="1777" height="260" xmlns="http://www.w3.org/2000/svg">
<path transform="translate(53)" d="m0 0h247v246h-124v53h-176v-176h53z"/>
<path transform="translate(0,123)" d="m0 0h176v176h-176z" fill="#2B2B2B"/>
<path transform="translate(1510,40)" d="m0 0h16l19 3 15 5 13 7 13 10 8 8 9 13 8 17 4 16 1 7v25l-4 20-7 16-6 10-8 10-7 7-13 9-14 7-12 4-21 3h-13l-15-2-15-4-16-8-13-9-11-11-10-15-7-16-4-17-1-9v-15l3-19 5-15 8-15 9-11 9-9 10-7 15-8 17-5zm-1 44-13 4-11 7-7 7-7 12-4 15v19l3 12 7 14 9 9 12 7 11 3h17l11-3 11-6 8-7 7-11 4-10 2-9v-16l-4-16-6-11-8-9-11-7-13-4z" fill="#FDFDFD"/>
<path transform="translate(1942,40)" d="m0 0h16l19 3 15 5 16 9 11 9 10 11 7 11 7 15 4 16 1 6v27l-4 18-5 13-8 14-8 10-7 7-13 9-14 7-17 5-16 2h-13l-15-2-15-4-16-8-9-6-10-9-8-9-8-13-6-14-4-17-1-10v-14l3-19 5-15 8-15 9-11 9-9 10-7 15-8 17-5zm-1 44-13 4-11 7-7 7-7 12-3 9-1 6v19l3 13 7 13 9 9 12 7 11 3h17l11-3 10-5 8-7 7-10 5-12 2-10v-15l-4-16-6-11-7-8-10-7-11-4-4-1z" fill="#FDFDFD"/>
<path transform="translate(646,40)" d="m0 0h16l19 3 15 5 13 7 13 10 8 8 9 13 7 14 4 14 2 12v25l-4 20-6 15-9 14-11 12-10 8-16 9-15 5-21 3h-13l-15-2-15-4-16-8-10-7-10-9-9-11-8-14-5-14-3-14-1-10v-10l2-17 4-15 8-16 9-13 11-11 15-10 16-7 17-4zm-1 44-13 4-11 7-9 10-6 12-3 12v19l4 15 7 12 7 7 11 7 9 3 5 1h16l11-3 10-5 9-8 7-11 4-10 2-9v-17l-3-13-7-13-8-9-11-7-13-4z" fill="#FDFDFD"/>
<path transform="translate(1729,41)" d="m0 0h26l16 3 16 6 16 9 13 12-2 5-18 18-7 8-8-6-13-8-11-4-5-1h-21l-12 4-10 6-8 7-7 11-4 10-2 11v13l4 16 7 13 10 10 10 6 12 4 6 1h13l13-4 10-6 7-9 4-12h-46v-36h89l1 1 1 28-2 16-5 15-6 11-8 10-8 8-14 9-11 5-14 4-15 2h-14l-16-2-15-4-17-8-12-9-7-6-11-14-8-16-4-13-3-21v-11l2-16 5-16 8-16 7-9 9-10 15-11 17-8 19-5z" fill="#FDFDFD"/>
<path transform="translate(1070,44)" d="m0 0 23 1 12 3 14 7 11 9 9 13 5 13 1 6v19l-4 15-6 11-9 10-9 7-5 4 13 23 28 48v1h-53l-10-17-15-27-12-21-24-1v66h-44v-189zm-30 39-1 1v48h43l7-3 6-5 4-8 1-11-3-10-6-7-8-4-6-1z" fill="#FDFDFD"/>
<path transform="translate(786,45)" d="m0 0h47l1 118 2 9 5 9 4 5 10 6 8 2h10l10-3 9-6 6-7 4-10 1-6 1-117h45v125l-3 15-8 16-6 8-10 10-15 9-14 5-10 2-11 1h-9l-16-2-14-4-17-9-13-12-9-13-5-12-2-9-1-9z" fill="#FDFDFD"/>
<path transform="translate(554,44)" d="m0 0 1 2-16 25-29 43-10 16-13 19-1 85h-46l-1-1-1-84-24-34-13-18-14-20-13-18-9-13v-1h53l42 60 4 4 2-5 11-17 14-22 13-20z" fill="#FDFDFD"/>
<path transform="translate(1272,45)" d="m0 0h46v148h85v41h-131z" fill="#FDFDFD"/>
</svg>
